<svg width="96" height="96" viewBox="0 0 96 96" fill="none" xmlns="http://www.w3.org/2000/svg">
  <rect width="96" height="96" rx="18" fill="#F7F4EF"/>
  <circle cx="48" cy="48" r="34" fill="#12172A"/>
  <path d="M61.5 34.7C58.8 32.2 55.2 30.8 50.9 30.8C40.8 30.8 33.6 38.4 33.6 48C33.6 57.6 40.8 65.2 50.9 65.2C55.2 65.2 58.8 63.8 61.5 61.3L56.9 56.8C55.3 58.2 53.3 59 50.9 59C44.9 59 40.7 54.4 40.7 48C40.7 41.6 44.9 37 50.9 37C53.3 37 55.3 37.8 56.9 39.2L61.5 34.7Z" fill="#F5A623"/>
  <path d="M64.7 44.6H52.8V51.4H64.7V44.6Z" fill="#E8503A"/>
  <path d="M30.6 48C30.6 37.3 38.5 29.2 49.8 29.2V35.8C42.4 35.8 37.1 41.3 37.1 48C37.1 54.7 42.4 60.2 49.8 60.2V66.8C38.5 66.8 30.6 58.7 30.6 48Z" fill="#3BAFD4"/>
</svg>
